<svg width="0" height="0" class="hidden">
  <symbol xmlns="http://www.w3.org/2000/svg" viewBox="0 0 480 480" id=" farmer">
    <path d="M101.648 452.288L33.776 384.4a7.991 7.991 0 00-11.312 0C9.248 397.616 4.088 415.84 6.872 433.016c.008.056-.016.112-.008.168.008.104.048.2.064.296a56.886 56.886 0 001.904 7.76c.12.36.248.712.376 1.072a55.638 55.638 0 002.912 6.976c.072.152.136.304.208.456 1.16 2.248 2.528 4.416 4.016 6.52.344.48.688.952 1.048 1.424 1.544 2.048 3.192 4.048 5.056 5.912 1.608 1.608 3.304 3.056 5.048 4.424.424.336.864.632 1.304.952a54.184 54.184 0 004.464 2.984c.408.248.816.488 1.232.728a55.514 55.514 0 0012.584 5.224c.088.024.168.064.256.088.08.024.16.016.232.032 4.744 1.264 9.608 1.944 14.48 1.944 14.336 0 28.68-5.456 39.6-16.376a7.991 7.991 0 000-11.312zm-79.456-29.76c.264-7.2 2.368-14.352 6.488-20.584l16.72 16.72-23.208 3.864zm21.864 37.088c-.872-.44-1.704-.952-2.552-1.464-.872-.528-1.784-.992-2.616-1.584a40.223 40.223 0 01-5.12-4.28c-1.872-1.872-3.488-3.936-4.936-6.104-.408-.608-.712-1.264-1.088-1.896-.96-1.632-1.848-3.304-2.568-5.064-.12-.304-.216-.608-.328-.912l26.2-4.368-6.992 25.672zm15.44 4.192l6.656-24.4 17.968 17.968c-7.4 4.888-16.08 6.976-24.624 6.432zM99.56 281.464c2.504-7.24 6.064-14.248 10.856-20.696l-12.832-9.544c-6.648 8.936-11.408 18.8-14.408 29.016C58.968 282.672 40 303.16 40 328c0 26.472 21.528 48 48 48s48-21.528 48-48c0-22.48-15.544-41.336-36.44-46.536zM88 360c-17.648 0-32-14.352-32-32 0-14.848 10.208-27.248 23.936-30.848-.416 5.192-.44 10.448.104 15.672l15.912-1.648a69.36 69.36 0 01-.016-14.056C109.736 300.672 120 313.112 120 328c0 17.648-14.352 32-32 32zm-.016-206.992c.008-.336.016-.672.016-1.008 0-17.648-14.352-32-32-32s-32 14.352-32 32c0 .336.008.672.016 1.008C10.224 156.56 0 169.112 0 184c0 16.584 12.68 30.264 28.864 31.848l3.272 17.616A8 8 0 0040 240h32a8 8 0 007.864-6.536l3.272-17.616C99.32 214.264 112 200.584 112 184c0-14.888-10.224-27.44-24.016-30.992zM80 200c-.696 0-1.368-.128-2.32-.264-4.224-.624-8.24 2.224-9.024 6.456L65.344 224H46.656l-3.312-17.816c-.792-4.232-5.072-7.024-9.304-6.416-.672.104-1.344.232-2.04.232-8.824 0-16-7.176-16-16s7.168-16 15.76-16c.208.024 1.064.12 1.264.136 2.776.216 5.288-1.04 6.896-3.192a7.982 7.982 0 001.112-7.512C40.336 155.504 40 153.728 40 152c0-8.824 7.176-16 16-16s16 7.176 16 16c0 1.728-.336 3.504-1.032 5.424a7.997 7.997 0 001.112 7.512c1.608 2.152 4.184 3.4 6.896 3.192.12-.008.88-.096 1.248-.136C88.944 168.12 96 175.248 96 184c0 8.824-7.176 16-16 16zm400 88v-8c0-4.416-3.584-8-8-8h-8c-17.008 0-30.496 4.704-40 13.456V248c35.44 0 48-12.56 48-48v-8c0-4.416-3.584-8-8-8h-8c-14.08 0-24.496 2.024-32 6.64v-15.92c13.76-4.024 24-18 24-34.72 0-19.744-25.4-33.576-28.296-35.088a8.025 8.025 0 00-7.408 0C409.4 106.424 384 120.256 384 140c0 16.728 10.24 30.696 24 34.72v15.92c-7.504-4.616-17.92-6.64-32-6.64h-8c-4.416 0-8 3.584-8 8v8c0 35.44 12.56 48 48 48v37.456C398.496 276.704 385.008 272 368 272h-8c-4.416 0-8 3.584-8 8v8c0 35.592 20.408 56 56 56v34.536C396.904 366.656 380.496 360 360 360h-8c-4.416 0-8 3.584-8 8v8c0 39.48 24.52 64 64 64v40h16v-40c37.16 0 56-21.528 56-64v-8c0-4.416-3.584-8-8-8h-8c-17.376 0-30.688 4.768-40 14.12V344c35.592 0 56-20.408 56-56zm-120 88c30.952 0 48 17.048 48 48-30.952 0-48-17.048-48-48zm8-88c26.544 0 40 13.456 40 40-26.544 0-40-13.456-40-40zm8-88c26.616 0 32 5.384 32 32-26.616 0-32-5.384-32-32zm88 88c0 26.544-13.456 40-40 40 0-26.544 13.456-40 40-40zm-8-88c0 26.616-5.384 32-32 32 0-26.616 5.384-32 32-32zm8 176c0 34.096-11.592 48-40 48 0-34.096 11.592-48 40-48zm-48-216c-8.824 0-16-8.976-16-20 0-6.624 9.2-14.368 16-18.728 6.696 4.32 16 12.144 16 18.728 0 11.024-7.176 20-16 20zM394.34 26.347l15.997-15.998 11.314 11.314-15.998 15.997zM408 56h24v16h-24zM360 0h16v24h-16zM58.34 21.662l11.314-11.314 15.998 15.997L74.338 37.66zM104 0h16v24h-16zM48 56h24v16H48zm192 0c-26.472 0-48 21.528-48 48s21.528 48 48 48 48-21.528 48-48-21.528-48-48-48zm0 80c-17.648 0-32-14.352-32-32s14.352-32 32-32 32 14.352 32 32-14.352 32-32 32z"></path>
    <path d="M390.92 76a7.999 7.999 0 00-2.12-10.408l-32-24c-1.792-1.344-4.08-1.904-6.264-1.464a8.014 8.014 0 00-5.32 3.632L267.568 168h-55.136L134.784 43.76a7.977 7.977 0 00-5.32-3.624c-2.2-.44-4.472.12-6.264 1.464l-32 24a7.997 7.997 0 00-2.12 10.408L176 226.152v68.784l-47.72 174.968a7.998 7.998 0 001.36 6.96A8.042 8.042 0 00136 480h48a7.997 7.997 0 007.504-5.232L240 343.144l48.496 131.624A7.997 7.997 0 00296 480h48a8.026 8.026 0 006.36-3.144 8.003 8.003 0 001.36-6.96L304 294.928v-68.784L390.92 76zM288.28 298.104L333.528 464h-31.952l-54.072-146.768a7.997 7.997 0 00-15.008 0L178.424 464h-31.952l45.248-165.896c.184-.688.28-1.392.28-2.104v-72a7.927 7.927 0 00-1.08-4.008L106.48 74.136l19.352-14.512 75.384 120.616A8.008 8.008 0 00208 184h64c2.76 0 5.32-1.424 6.784-3.76l75.384-120.616 19.352 14.512-84.44 145.856A7.927 7.927 0 00288 224v72c0 .712.096 1.416.28 2.104z"></path>
  </symbol>
  <symbol xmlns="http://www.w3.org/2000/svg" viewBox="0 0 64 64" id="cart">
    <path d="M24 52c-3.3 0-6 2.7-6 6s2.7 6 6 6 6-2.7 6-6-2.7-6-6-6zm0 8c-1.1 0-2-.9-2-2s.9-2 2-2 2 .9 2 2-.9 2-2 2zm27-8c-3.3 0-6 2.7-6 6s2.7 6 6 6 6-2.7 6-6-2.7-6-6-6zm0 8c-1.1 0-2-.9-2-2s.9-2 2-2 2 .9 2 2-.9 2-2 2zM19 42h39.8l4.5-34H13.5l-1.9-8H0v4h8.4l8.2 34.5c-2.1.9-3.6 3-3.6 5.5 0 3.3 2.7 6 6 6h39v-4H19c-1.1 0-2-.9-2-2s.9-2 2-2zm25-15v11H31V27h13zm-13-4V12h13v11H31zm-4 15h-6.4L18 27h9v11zm21 0V27h8.7l-1.5 11H48zm9.2-15H48V12h10.7l-1.5 11zM27 12v11H17l-2.6-11H27z"></path>
  </symbol>
  <symbol xmlns="http://www.w3.org/2000/svg" viewBox="0 0 64 64" id="certificate">
    <path d="M32 64C14.4 64 0 49.6 0 32S14.4 0 32 0s32 14.4 32 32-14.4 32-32 32zm0-60C16.6 4 4 16.6 4 32s12.6 28 28 28 28-12.6 28-28S47.4 4 32 4z"></path>
    <path d="M34.4 47V33.3h4.7l.7-5.3h-5.4v-3.4c0-1.5.4-2.6 2.7-2.6H40v-4.8c-.5-.1-2.2-.2-4.2-.2-4.2 0-7 2.5-7 7v4H24v5.3h4.7V47h5.7z"></path>
  </symbol>
  <symbol xmlns="http://www.w3.org/2000/svg" viewBox="0 0 64 64" id="facebook">
    <path d="M51 61.7l-8-5.3-8 5.3V52H4c-2.2 0-4-1.8-4-4V8c0-2.2 1.8-4 4-4h56c2.2 0 4 1.8 4 4v40c0 2.2-1.8 4-4 4h-9v9.7zm-8-10.1l4 2.7v-7.9c-2.5.9-5.5.9-8 0v7.9l4-2.7zm8-3.6h9V8H4v40h31v-4.1c-2.5-2.2-4-5.4-4-8.9 0-6.6 5.4-12 12-12s12 5.4 12 12c0 3.5-1.5 6.7-4 8.9V48zm-8-21c-4.4 0-8 3.6-8 8s3.6 8 8 8 8-3.6 8-8-3.6-8-8-8zm-17-2H10v-4h16v4zm28-8H10v-4h44v4z"></path>
  </symbol>
  <symbol xmlns="http://www.w3.org/2000/svg" viewBox="0 0 1190.6 841.9" id="gift">
    <path d="M1016.2 157.9H896.8c9-15.5 14.2-33.5 14.2-52.6C911 47.4 863.6 0 805.7 0c-26.3 0-51.3 9.2-69.7 26.3L595.3 149.4 463.7 34.2l-9.2-7.9C436.1 9.2 411.1 0 384.8 0c-57.9 0-105.2 47.4-105.2 105.2 0 19.1 5.2 37.1 14.2 52.6H174.3v223.6h52.6v460.4h736.7V381.5h52.6V157.9zm-246-92.1l3.9-2.6c7.9-6.6 19.7-10.5 31.6-10.5 28.9 0 52.6 23.7 52.6 52.6 0 28.9-23.7 52.6-52.6 52.6H665l105.2-92.1zM661 381.5v407.8H529.5V381.5H661zm-131.5-52.6V210.5H661v118.4H529.5zM332.2 105.2c0-28.9 23.7-52.6 52.6-52.6 11.8 0 22.4 3.9 31.6 10.5l109.2 94.7H384.8c-28.9.1-52.6-23.6-52.6-52.6zM226.9 210.5h250v118.4h-250V210.5zm52.7 171h197.3v407.8H279.6V381.5zM911 789.3H713.7V381.5H911v407.8zm52.6-460.4H713.7V210.5h250v118.4z"></path>
  </symbol>
  <symbol xmlns="http://www.w3.org/2000/svg" viewBox="0 0 64 64" id="harvest">
    <path d="M32 61l-1.1-.8C29.6 59.3 0 38.8 0 22v-1.1C0 11.3 7.9 3.4 17.6 3.4c5.9 0 11.2 2.9 14.4 7.6 3.2-4.7 8.6-7.6 14.4-7.6 9.7 0 17.6 7.8 17.6 17.5V22c0 16.7-29.6 37.3-30.9 38.2L32 61zM17.6 7.4C10.1 7.4 4 13.5 4 20.9V22c0 6 5 13.8 14.3 22.8C24 50.1 29.6 54.4 32 56.1c2.4-1.7 8-6 13.7-11.3C55 35.8 60 28 60 22v-1.1c0-7.4-6.1-13.5-13.6-13.5-5.6 0-10.5 3.3-12.6 8.5L32 20.6 30.1 16c-2-5.2-7-8.6-12.5-8.6z"></path>
  </symbol>
  <symbol xmlns="http://www.w3.org/2000/svg" viewBox="0 0 512 512" id="heart">
    <path d="M406.573 0c-14 0-28.073 3.031-41.854 9.021a10.662 10.662 0 00-3.291 17.323l5.169 5.169c-4.405 2.378-8.625 5.089-12.565 8.237l-5.613 4.491-11.783-11.783c-2.021-2.031-5.052-3.458-7.646-3.125a10.64 10.64 0 00-7.583 3.281c-2.031 2.104-31.104 31.167-33.198 33.198a10.66 10.66 0 00-.115 15.198l7.895 7.895c-4.646 5.749-8.396 12.078-11.357 18.81l-2.288-2.288c-2.5-2.5-6.115-3.573-9.531-2.938a10.656 10.656 0 00-7.792 6.229c-5.99 13.792-9.021 27.875-9.021 41.854 0 17.48 4.684 33.732 12.245 48.26L67.792 397.896c-4.594 4.313-11.292 6.938-19.896 7.802-16.99 1.698-31.844 11.271-40.74 26.271C2.458 439.875-.01 449.115 0 458.708c.031 10.323 2.906 20.208 8.344 28.594 10 15.427 26.802 24.656 44.927 24.698h.104c14.24 0 27.635-5.542 37.708-15.625a53.099 53.099 0 0015.26-32.281c.844-8.563 3.479-15.24 7.667-19.688l197.452-201.577c14.94 8.129 31.793 13.171 49.965 13.171 14 0 28.073-3.031 41.854-9.021a10.662 10.662 0 003.291-17.323l-2.29-2.29c6.729-2.958 13.051-6.716 18.805-11.362l7.902 7.902c2 2 4.719 3.125 7.542 3.125 2.281.083 5.635-1.177 7.656-3.24 2.031-2.094 31.094-31.167 33.198-33.198a10.642 10.642 0 003.281-7.583 10.625 10.625 0 00-3.125-7.646l-11.788-11.788 4.486-5.608c3.151-3.934 5.881-8.145 8.26-12.552l5.156 5.156a10.662 10.662 0 0017.324-3.292c5.99-13.792 9.021-27.875 9.021-41.854C512 47.292 464.708 0 406.573 0zM98.615 429.625c-7.635 8.115-12.177 19-13.5 32.375-.729 7.385-3.875 14.052-9.115 19.292-6.052 6.052-14.083 9.375-22.625 9.375h-.063c-11.042-.021-20.917-5.479-27.073-14.969-3.188-4.927-4.885-10.823-4.906-17.031-.01-5.74 1.427-11.208 4.167-15.813 5.479-9.24 14.188-14.896 24.521-15.927 13.385-1.344 24.281-5.875 32.594-13.688l197.626-196.236a105.556 105.556 0 0013.333 13.582L98.615 429.625zm262.812-194.958c-46.365 0-84.094-37.729-84.094-84.094 0-5.927.698-11.906 2.094-17.885l99.896 99.885c-5.99 1.396-11.969 2.094-17.896 2.094zm26.259-23.897l-86.458-86.458c2.086-7.327 5.358-14.197 9.904-20.263l96.844 96.844c-6.078 4.55-12.964 7.801-20.29 9.877zm50.824-9.51L310.74 73.49c5.51-5.5 12.875-12.854 18.375-18.385l127.781 127.781a7584.61 7584.61 0 00-18.386 18.374zm17.073-56.635l-3.014 3.767-88.97-88.97 3.766-3.016c4.65-3.716 9.891-6.477 15.388-8.737l81.583 81.583c-2.258 5.501-5.027 10.735-8.753 15.373zm32.99-21.312l-99.896-99.885c52.833-12.26 101.99 29.708 101.99 82 0 5.926-.698 11.905-2.094 17.885zm-70.229 158.02c-5.698 7.104-55.677 70.396-55.677 102.667 0 35.292 28.708 64 64 64s64-28.708 64-64c0-32.271-49.979-95.563-55.677-102.667-4.042-5.062-12.605-5.062-16.646 0zm8.323 145.334C403.135 426.667 384 407.531 384 384c0-16.24 23.552-53.042 42.667-78.563 19.115 25.51 42.667 62.313 42.667 78.563-.001 23.531-19.136 42.667-42.667 42.667z"></path>
  </symbol>
  <symbol xmlns="http://www.w3.org/2000/svg" viewBox="0 0 480.002 480.002" id="honey-1">
    <path d="M304.002 328.001h48v16h-48zm-262.664-152h40v16h-40zm8 40h40v16h-40zm158.664-48h16v32h-16zm32 56h16v32h-16zm-60.56-94.584c-16.984 11.76-24.224 27.632-27.032 36.048-6.536 19.624-2.8 36.656 0 45.064l15.176-5.064c-2.176-6.52-5.072-19.736 0-34.936 2.176-6.52 7.792-18.832 20.968-27.952l-9.112-13.16z"></path>
    <path d="M472.002 272.001h-28.32c7.632-8.504 12.32-19.696 12.32-32 0-7.888-2.016-15.648-5.8-22.6 18.176-9.544 29.8-28.288 29.8-49.4 0-21.192-12.048-40.296-30.368-49.752 4.152-6.808 6.368-14.432 6.368-22.248 0-24.144-20.896-44.176-48-47.512v-.488c0-26.472-25.12-48-56-48s-56 21.528-56 48v.488c-23.576 2.904-42.432 18.44-46.952 38.32-12.464-9.392-26.352-14.808-41.048-14.808-27.52 0-52.296 18.528-69.816 48h-34.184l38.4-51.2-12.8-9.6-33.6 44.8v-80h-16v80l-33.6-44.8-12.8 9.6 38.4 51.2H56.514c-17.88 0-34.256 8.224-44.928 22.568s-13.84 32.392-8.704 49.512l23.968 79.92H8.002a8.003 8.003 0 00-7.056 4.224 7.984 7.984 0 00.4 8.208l128 192a7.998 7.998 0 006.656 3.568h216c2.76 0 5.32-1.424 6.784-3.76l45-72 40-64 35-56a8.002 8.002 0 00.208-8.12 7.983 7.983 0 00-6.992-4.12zM303.994 64.009c-.024.096.816.032.984.032a8.027 8.027 0 006.296-3.064 8.02 8.02 0 001.472-6.84 25.607 25.607 0 01-.744-6.136c0-17.648 17.944-32 40-32s40 14.352 40 32c0 2.064-.248 4.128-.744 6.136a8.015 8.015 0 001.472 6.84 8.027 8.027 0 006.296 3.064l.976-.04c22.056 0 40 14.352 40 32 0 7.36-3.088 14.296-8.92 20.056a8.024 8.024 0 00-2.12 7.72 7.998 7.998 0 005.624 5.696c17.32 4.744 29.416 20.592 29.416 38.528 0 17.632-11.384 32.968-28.336 38.152a7.986 7.986 0 00-5.352 5.456 8.01 8.01 0 001.664 7.464c3.664 4.176 8.024 11.208 8.024 20.928 0 17.648-14.352 32-32 32h-48v-28.688l29.656-29.656-11.312-11.312-18.344 18.344v-33.376l29.656-29.656-11.312-11.312-18.344 18.344v-33.376l29.656-29.656-11.312-11.312-18.344 18.344V72.001h-16v36.688l-18.344-18.344-11.312 11.312 29.656 29.656v33.376l-18.344-18.344-11.312 11.312 29.656 29.656v33.376l-18.344-18.344-11.312 11.312 29.656 29.656v28.688H299.17c.16-.76.264-1.536.416-2.296.304-1.536.568-3.088.84-4.632a240.63 240.63 0 001.976-13.624c.352-3.104.624-6.232.864-9.368.104-1.432.24-2.856.32-4.288.256-4.576.416-9.16.416-13.792 0-5.728-.24-11.368-.632-16.936-.136-1.888-.368-3.736-.544-5.616-.344-3.6-.712-7.184-1.208-10.696-.336-2.4-.752-4.752-1.16-7.12-.48-2.76-.992-5.496-1.568-8.184-.6-2.84-1.248-5.632-1.944-8.408-.456-1.792-.96-3.544-1.456-5.304-6.736-23.928-17.184-45.072-30.832-60.8l-.224-1.168c-.2-1.24-.432-2.48-.432-3.768 0-17.64 17.936-31.992 39.992-31.992zm-154.44 67.84c.264-.48.424-.984.584-1.496 14.584-26.032 35.104-42.352 57.864-42.352 15.768 0 30.44 7.896 42.84 21.336.152.2.256.44.424.624 14.296 15.792 24.992 38.248 31.056 64.008.12.512.224 1.04.336 1.56.96 4.24 1.776 8.584 2.488 12.984.2 1.24.392 2.48.568 3.736.56 3.896.984 7.856 1.336 11.848.12 1.36.272 2.696.368 4.064.36 5.224.584 10.504.584 15.84 0 16.56-1.752 32.68-5.2 48h-98.8v-24h-16v24h-34.688c-.304-1.328-.616-2.656-.888-4a182.456 182.456 0 01-1-5.144c-.456-2.544-.832-5.12-1.2-7.704-.232-1.672-.488-3.328-.688-5.016-.336-2.864-.568-5.76-.792-8.656-.112-1.432-.264-2.856-.344-4.296-.256-4.36-.4-8.752-.4-13.184 0-4.424.144-8.792.392-13.104.168-2.904.456-5.776.728-8.64.12-1.272.2-2.56.344-3.816 2.832-24.624 9.72-47.664 20.088-66.592zM18.202 187.497c-3.672-12.232-1.408-25.128 6.216-35.368 7.624-10.256 19.32-16.128 32.096-16.128h73.144c-2.168 4.856-4.088 9.944-5.872 15.136-.104.312-.216.616-.32.928a201.72 201.72 0 00-3.68 12.072c-.096.352-.2.688-.296 1.04a219.963 219.963 0 00-3.088 13.328c-.128.656-.224 1.328-.344 1.992a235.478 235.478 0 00-1.808 11.088c-.208 1.488-.376 2.992-.552 4.496-.376 3.168-.68 6.352-.928 9.568-.112 1.472-.24 2.928-.328 4.408-.264 4.616-.44 9.264-.44 13.944 0 4.624.16 9.216.416 13.776.08 1.448.216 2.88.32 4.32.232 3.136.504 6.256.856 9.352.184 1.624.392 3.232.616 4.84.4 2.952.856 5.872 1.368 8.776.272 1.552.536 3.104.84 4.648.152.76.256 1.536.416 2.288h-73.28l-25.352-84.504zM432.57 328.001h-56.568v16h46.568l-30 48H240.002v16H382.57l-35 56H140.282l-117.328-176h248.592c1.2.112 3.176.176 7.048.176 3.168 0 7.608-.048 13.936-.136l115.472-.04h49.568l-25 40z"></path>
  </symbol>
  <symbol xmlns="http://www.w3.org/2000/svg" viewBox="0 0 512 512" id="honey">
    <path d="M256 0C114.833 0 0 114.844 0 256s114.833 256 256 256 256-114.844 256-256S397.167 0 256 0zm0 490.667C126.604 490.667 21.333 385.396 21.333 256S126.604 21.333 256 21.333 490.667 126.604 490.667 256 385.396 490.667 256 490.667z"></path>
    <path d="M425.167 250.542l-38.104-64a10.675 10.675 0 00-9.167-5.208h-70.12l-34.984-58.792a10.65 10.65 0 00-9.167-5.208h-76.188c-3.771 0-7.271 2-9.188 5.25l-38.104 64.635c-1.979 3.375-1.979 7.563.042 10.917l34.833 57.926-34.875 59.158c-1.979 3.375-1.979 7.563.042 10.917l38.104 63.365a10.674 10.674 0 009.146 5.167h76.188a10.65 10.65 0 009.167-5.208l34.984-58.792h70.12c3.75 0 7.25-1.979 9.167-5.208l38.104-64c2-3.367 2-7.555 0-10.919zM161.75 192.583l31.792-53.917h64.021L289.292 192l-31.729 53.333H193.48l-31.73-52.75zm95.813 180.75H193.48l-31.729-52.75 31.792-53.917h63.667l32.066 53.362-31.713 53.305zm114.27-64h-64.057l-31.563-53.042 31.599-53.625h64.021L403.583 256l-31.75 53.333z"></path>
  </symbol>
  <symbol xmlns="http://www.w3.org/2000/svg" viewBox="0 0 64 64" id="instagram">
    <path d="M32 64C14.4 64 0 49.6 0 32S14.4 0 32 0s32 14.4 32 32-14.4 32-32 32zm0-60C16.6 4 4 16.6 4 32s12.6 28 28 28 28-12.6 28-28S47.4 4 32 4z"></path>
    <path fill-rule="evenodd" clip-rule="evenodd" d="M20.9 17h22.3c2.1 0 3.9 1.7 3.9 3.9v22.3c0 2.1-1.7 3.9-3.9 3.9H20.9c-2.1 0-3.9-1.7-3.9-3.9V20.9c0-2.2 1.7-3.9 3.9-3.9zm18 3.3c-.7 0-1.4.6-1.4 1.4v3.2c0 .7.6 1.4 1.4 1.4h3.4c.7 0 1.4-.6 1.4-1.4v-3.2c0-.7-.6-1.4-1.4-1.4h-3.4zm4.7 9.4H41c.2.8.4 1.7.4 2.6 0 5-4.2 9-9.3 9-5.1 0-9.3-4-9.3-9 0-.9.1-1.8.4-2.6h-2.8v12.7c0 .7.5 1.2 1.2 1.2h20.9c.7 0 1.2-.5 1.2-1.2V29.7h-.1zM32 26.1c-3.3 0-6 2.6-6 5.8 0 3.2 2.7 5.8 6 5.8s6-2.6 6-5.8c.1-3.2-2.6-5.8-6-5.8z"></path>
  </symbol>
  <symbol xmlns="http://www.w3.org/2000/svg" viewBox="0 0 512 512" id="location">
    <path d="M467 76H45C20.137 76 0 96.262 0 121v270c0 24.885 20.285 45 45 45h422c24.655 0 45-20.03 45-45V121c0-24.694-20.057-45-45-45zm-6.302 30L287.82 277.967c-8.5 8.5-19.8 13.18-31.82 13.18s-23.32-4.681-31.848-13.208L51.302 106h409.396zM30 384.894V127.125L159.638 256.08 30 384.894zM51.321 406l129.587-128.763 22.059 21.943c14.166 14.166 33 21.967 53.033 21.967s38.867-7.801 53.005-21.939l22.087-21.971L460.679 406H51.321zM482 384.894L352.362 256.08 482 127.125v257.769z"></path>
  </symbol>
  <symbol xmlns="http://www.w3.org/2000/svg" viewBox="0 0 64 64" id="mail">
    <path d="M40 18c0-4.4-3.6-8-8-8s-8 3.6-8 8 3.6 8 8 8 8-3.6 8-8zm-12 0c0-2.2 1.8-4 4-4s4 1.8 4 4-1.8 4-4 4-4-1.8-4-4z"></path>
    <path d="M30.5 49.3l1.5 1.9 1.5-1.9c.4-.5 1-1.2 1.7-2C40.4 41.5 51 29.4 51 19.2 51 8.6 42.5 0 32 0S13 8.6 13 19.2c0 10.4 10.8 22.5 15.9 28.4.7.6 1.2 1.2 1.6 1.7zM32 4c8.3 0 15 6.8 15 15.2 0 8.8-10.3 20.5-14.7 25.5l-.3.3s0-.1-.1-.1C27.5 39.8 17 28 17 19.2 17 10.8 23.7 4 32 4z"></path>
    <path d="M55.5 35H48v4h4.5l5.9 21H5.6l5.9-21H16v-4H8.5L.4 64h63.2z"></path>
  </symbol>
  <symbol xmlns="http://www.w3.org/2000/svg" viewBox="0 0 512 512" id="organic">
    <path d="M247.594 89.438c-4.01 5.135-98.26 126.813-98.26 208.604 0 55.482 42.25 100.733 96 106.207v33.085c0 5.896 4.771 10.667 10.667 10.667s10.667-4.771 10.667-10.667v-33.085c53.75-5.474 96-50.725 96-106.207 0-81.792-94.25-203.469-98.26-208.604-4.043-5.188-12.773-5.188-16.814 0zm-2.261 293.475c-41.979-5.358-74.667-41.155-74.667-84.871 0-6.444.827-13.283 2.098-20.301l72.569 58.059v47.113zm0-74.438l-66.816-53.465c4.701-14.801 11.117-30.048 18.464-44.973l48.353 40.298v58.14zm0-85.918l-38.26-31.892c13.072-23.885 27.25-45.756 38.26-61.721v93.613zm21.334-93.613c11.01 15.965 25.189 37.836 38.26 61.721l-38.26 31.892v-93.613zm0 121.392l48.353-40.298c7.346 14.924 13.763 30.172 18.464 44.973l-66.816 53.465v-58.14zm0 85.463l72.569-58.059c1.271 7.018 2.098 13.857 2.098 20.301 0 43.716-32.688 79.513-74.667 84.871v-47.113z"></path>
    <path d="M494.771 295.688C502.854 284.281 512 271.354 512 256s-9.146-28.281-17.229-39.688c-5.302-7.49-10.313-14.563-12.052-21.063-1.854-6.969-1.052-15.885-.208-25.333 1.292-14.333 2.615-29.167-4.781-41.948-7.5-12.979-21.74-19.542-34.302-25.323-8.51-3.927-16.542-7.625-21.49-12.573-4.948-4.948-8.646-12.99-12.573-21.49-5.792-12.563-12.354-26.802-25.323-34.302-12.802-7.406-27.625-6.063-41.958-4.792-9.448.833-18.354 1.635-25.323-.208-6.51-1.74-13.583-6.75-21.073-12.052C284.281 9.146 271.354 0 256 0s-28.281 9.146-39.688 17.229c-7.49 5.302-14.563 10.313-21.063 12.052-6.99 1.844-15.906 1.042-25.333.208-14.323-1.281-29.146-2.625-41.948 4.781-12.979 7.5-19.542 21.74-25.323 34.302-3.927 8.51-7.625 16.542-12.573 21.49-4.948 4.948-12.99 8.646-21.49 12.573-12.563 5.792-26.802 12.354-34.302 25.323-7.396 12.781-6.073 27.615-4.792 41.958.854 9.438 1.646 18.365-.208 25.323-1.74 6.51-6.75 13.583-12.052 21.073C9.146 227.719 0 240.646 0 256s9.146 28.281 17.229 39.688c5.302 7.49 10.313 14.563 12.052 21.063 1.854 6.969 1.052 15.885.208 25.333-1.292 14.333-2.615 29.167 4.781 41.948 7.5 12.979 21.74 19.542 34.302 25.323 8.51 3.927 16.542 7.625 21.49 12.573 4.948 4.948 8.646 12.99 12.573 21.49 5.792 12.563 12.354 26.802 25.323 34.302 12.792 7.396 27.615 6.063 41.958 4.792 9.427-.865 18.344-1.667 25.323.208 6.51 1.74 13.583 6.75 21.073 12.052C227.719 502.854 240.646 512 256 512s28.281-9.146 39.688-17.229c7.49-5.302 14.563-10.313 21.063-12.052 6.948-1.875 15.885-1.073 25.333-.208 14.323 1.292 29.146 2.635 41.948-4.781 12.979-7.5 19.542-21.74 25.323-34.302 3.927-8.51 7.625-16.542 12.573-21.49 4.948-4.948 12.99-8.646 21.49-12.573 12.563-5.792 26.802-12.354 34.302-25.323 7.396-12.781 6.073-27.615 4.792-41.958-.854-9.438-1.646-18.365.208-25.323 1.738-6.511 6.749-13.584 12.051-21.073zm-17.406-12.334c-6.156 8.698-12.521 17.698-15.25 27.896-2.833 10.615-1.833 21.865-.854 32.74 1.031 11.542 2.01 22.438-2 29.365-4.125 7.115-14.156 11.74-24.771 16.635-9.833 4.531-20 9.219-27.646 16.865-7.646 7.646-12.333 17.813-16.865 27.646-4.885 10.615-9.51 20.646-16.635 24.771-6.938 4.01-17.844 3.021-29.354 1.99-10.896-.99-22.125-2-32.75.854-10.188 2.729-19.188 9.094-27.885 15.25-9.656 6.844-18.792 13.302-27.354 13.302s-17.698-6.458-27.354-13.302c-8.698-6.156-17.698-12.521-27.896-15.25-5.198-1.396-10.552-1.854-15.938-1.854-5.615 0-11.25.5-16.802 1-11.552 1.042-22.427 2.01-29.365-2-7.115-4.125-11.74-14.156-16.635-24.771-4.531-9.833-9.219-20-16.865-27.646-7.646-7.647-17.813-12.335-27.646-16.866-10.615-4.885-20.646-9.51-24.771-16.635-4.01-6.927-3.031-17.823-1.99-29.354.979-10.875 1.979-22.125-.854-32.75-2.729-10.188-9.094-19.188-15.25-27.885-6.844-9.656-13.302-18.792-13.302-27.354s6.458-17.698 13.302-27.354c6.156-8.698 12.521-17.698 15.25-27.896 2.833-10.615 1.833-21.865.854-32.74-1.031-11.542-2.01-22.438 2-29.365 4.125-7.115 14.156-11.74 24.771-16.635 9.833-4.531 20-9.219 27.646-16.865 7.646-7.646 12.333-17.813 16.865-27.646 4.885-10.615 9.51-20.646 16.635-24.771 6.906-4.021 17.802-3.052 29.354-1.99 10.865.979 22.104 1.99 32.75-.854 10.188-2.729 19.188-9.094 27.885-15.25 9.656-6.844 18.792-13.302 27.354-13.302s17.698 6.458 27.354 13.302c8.698 6.156 17.698 12.521 27.896 15.25 10.604 2.844 21.844 1.833 32.74.854 11.573-1.01 22.448-2 29.365 2 7.115 4.125 11.74 14.156 16.635 24.771 4.531 9.833 9.219 20 16.865 27.646s17.813 12.333 27.646 16.865c10.615 4.885 20.646 9.51 24.771 16.635 4.01 6.927 3.031 17.823 1.99 29.354-.979 10.875-1.979 22.125.854 32.75 2.729 10.188 9.094 19.188 15.25 27.885 6.844 9.656 13.302 18.792 13.302 27.354s-6.459 17.699-13.302 27.355z"></path>
  </symbol>
  <symbol xmlns="http://www.w3.org/2000/svg" viewBox="0 0 64 64" id="phone">
    <path d="M34 12v4c7.7 0 14 6.3 14 14h4c0-9.9-8.1-18-18-18z"></path>
    <path d="M60 32h4C64 14.4 49.6 0 32 0v4c15.4 0 28 12.6 28 28zm1.9 15.1L52.8 38c-1.3-1.3-3.1-2.1-4.9-2.1-1.6 0-3 .6-4.1 1.6L38 43.3c-3.3-2.3-6.5-5-9.5-7.9-3-3-5.6-6.1-7.9-9.5l5.8-5.8c2.3-2.3 2.2-6.4-.4-8.9l-9.1-9.1C15.6.8 13.8 0 12.1 0 10.5 0 9.1.6 8 1.6L2.9 6.8c-.3.3-.6.7-.9 1.1-5.5 8.5.8 25.4 14.7 39.3C27 57.6 39.2 64 48.4 64c3 0 5.6-.7 7.7-2 .5-.2.9-.5 1.2-.9l5.1-5.1c1.2-1.2 1.7-2.8 1.6-4.5-.1-1.7-.9-3.2-2.1-4.4zm-2.4 6.1l-5.1 5.1s-.1.1-.2.1l-.2.1c-1.4 1-3.3 1.4-5.6 1.4-8.1 0-19.4-6.1-28.8-15.6C7.1 32 .9 16.9 5.4 10.1l.1-.2.1-.2 5.1-5.1c.5-.5 1-.6 1.4-.6.7 0 1.5.3 2 .9l9.1 9.1c1 1 1.2 2.5.4 3.3l-5.9 5.9c-1.3 1.3-1.4 3.4-.3 4.9 2.4 3.5 5.3 6.9 8.4 10 3.2 3.2 6.5 6 10 8.4 1.5 1.1 3.7.9 4.9-.3l5.9-5.9c.4-.4.9-.5 1.2-.5.7 0 1.5.3 2 .9l9.1 9.1c.5.5.8 1.2.9 1.9.2.4.2 1-.3 1.5z"></path>
  </symbol>
  <symbol xmlns="http://www.w3.org/2000/svg" viewBox="0 0 64 64" id="shopping">
    <path d="M54 8H42V4c0-2.2-1.8-4-4-4H26c-2.2 0-4 1.8-4 4v4H10c-2.2 0-4 1.8-4 4v8h4.1l2.6 38.4c.2 3.1 2.8 5.6 6 5.6h26.5c3.1 0 5.8-2.5 6-5.6L53.9 20H58v-8c0-2.2-1.8-4-4-4zM26 4h12v4H26V4zm21.3 54.1c-.1 1-.9 1.9-2 1.9H18.7c-1 0-1.9-.8-2-1.9L14.1 20h35.7l-2.5 38.1zM54 16H10v-4h44v4z"></path>
    <path d="M22.995 25.885l2.002 26.025-3.988.306-2.002-26.024zM30 26h4v26h-4zm11.004-.114l3.989.307-2.001 26.024-3.989-.307z"></path>
  </symbol>
</svg>